<?xml version="1.0" encoding="UTF-8" standalone="no"?>
<svg
   xmlns:dc="http://purl.org/dc/elements/1.1/"
   xmlns:cc="http://creativecommons.org/ns#"
   xmlns:rdf="http://www.w3.org/1999/02/22-rdf-syntax-ns#"
   xmlns:svg="http://www.w3.org/2000/svg"
   xmlns="http://www.w3.org/2000/svg"
   xmlns:xlink="http://www.w3.org/1999/xlink"
   version="1.0"
   id="svg3186"
   height="128"
   width="128">
  <defs
     id="defs3188">
    <radialGradient
       r="40.0294"
       fy="68.340897"
       fx="80.342453"
       cy="68.340897"
       cx="80.342453"
       gradientTransform="matrix(4.7377213e-8,-0.1315545,0.7519296,0,12.61245,94.56941)"
       gradientUnits="userSpaceOnUse"
       id="radialGradient2197"
       xlink:href="#radialGradient3163" />
    <radialGradient
       id="radialGradient3163"
       cx="53.1978"
       cy="59.1865"
       r="40.0294"
       gradientTransform="matrix(0.6667,0,0,0.7574,20.7214,14.064)"
       gradientUnits="userSpaceOnUse">
      <stop
         offset="0"
         style="stop-color:#000000;stop-opacity:1;"
         id="stop3165" />
      <stop
         offset="1"
         style="stop-color:#666666;stop-opacity:1;"
         id="stop3175" />
    </radialGradient>
    <linearGradient
       gradientTransform="translate(559.14286,-264.28571)"
       y2="34"
       x2="104.0518"
       y1="34"
       x1="11.9487"
       gradientUnits="userSpaceOnUse"
       id="XMLID_9_">
      <stop
         id="stop56"
         style="stop-color:#FFFFFF"
         offset="0" />
      <stop
         id="stop58"
         style="stop-color:#ffffff;stop-opacity:0;"
         offset="0.80000001" />
    </linearGradient>
    <radialGradient
       gradientTransform="translate(559.14286,-264.28571)"
       gradientUnits="userSpaceOnUse"
       r="48"
       cy="58"
       cx="58"
       id="XMLID_7_">
      <stop
         id="stop26"
         style="stop-color:#FFFFFF"
         offset="0" />
      <stop
         id="stop28"
         style="stop-color:#FFFFFF"
         offset="0.574" />
      <stop
         id="stop30"
         style="stop-color:#FBFBFB"
         offset="0.6842" />
      <stop
         id="stop32"
         style="stop-color:#EEEEEE"
         offset="0.8001" />
      <stop
         id="stop34"
         style="stop-color:#DDDDDD"
         offset="0.9" />
      <stop
         id="stop36"
         style="stop-color:#BBBBBB"
         offset="1" />
    </radialGradient>
    <filter
       id="AI_Sfocatura_4">
      <feGaussianBlur
         id="feGaussianBlur6"
         stdDeviation="4" />
    </filter>
    <linearGradient
       y2="4.882812e-04"
       x2="58.0005"
       y1="116"
       x1="58.0005"
       gradientUnits="userSpaceOnUse"
       id="XMLID_6_">
      <stop
         id="stop9"
         style="stop-color:#555555"
         offset="0" />
      <stop
         id="stop11"
         style="stop-color:#595959"
         offset="0.2736" />
      <stop
         id="stop13"
         style="stop-color:#666666"
         offset="0.562" />
      <stop
         id="stop15"
         style="stop-color:#7B7B7B"
         offset="0.8561" />
      <stop
         id="stop17"
         style="stop-color:#888888"
         offset="1" />
    </linearGradient>
    <linearGradient
       y2="34"
       x2="104.0518"
       y1="34"
       x1="11.9487"
       gradientTransform="translate(6.0000006,6.0000006)"
       gradientUnits="userSpaceOnUse"
       id="linearGradient3242"
       xlink:href="#XMLID_9_" />
    <radialGradient
       r="48"
       cy="58"
       cx="58"
       gradientTransform="matrix(1.0833333,0,0,1.0833333,1.1666673,1.1666673)"
       gradientUnits="userSpaceOnUse"
       id="radialGradient3246"
       xlink:href="#XMLID_7_" />
    <linearGradient
       y2="4.882812e-04"
       x2="58.0005"
       y1="116"
       x1="58.0005"
       gradientUnits="userSpaceOnUse"
       id="linearGradient3251"
       xlink:href="#XMLID_6_" />
    <radialGradient
       r="40.0294"
       cy="59.186501"
       cx="53.1978"
       gradientTransform="matrix(0.6667,0,0,0.7574,20.7214,14.064)"
       gradientUnits="userSpaceOnUse"
       id="radialGradient3253"
       xlink:href="#radialGradient3163" />
  </defs>
  <metadata
     id="metadata3191">
    <rdf:RDF>
      <cc:Work
         rdf:about="">
        <dc:format>image/svg+xml</dc:format>
        <dc:type
           rdf:resource="http://purl.org/dc/dcmitype/StillImage" />
        <dc:title />
      </cc:Work>
    </rdf:RDF>
  </metadata>
  <g
     id="layer1">
    <circle
       transform="matrix(1.1034483,0,0,1.1034483,0,-2.8e-6)"
       style="fill:url(#linearGradient3251)"
       id="circle19"
       r="58"
       cy="58"
       cx="58" />
    <g
       style="filter:url(#AI_Sfocatura_4);opacity:0.8"
       transform="matrix(1.0833333,0,0,1.0833333,1.1666686,1.1666686)"
       id="g21">
      <path
         id="path23"
         d="M 10,58 C 10,84.467 31.533,106 58,106 C 84.467,106 106,84.467 106,58 C 106,31.533 84.467,10 58,10 C 31.533,10 10,31.533 10,58 z " />
    </g>
    <path
       style="fill:url(#radialGradient3246)"
       id="path38"
       d="M 12,63.999999 C 12,92.672581 35.327414,116 63.999998,116 C 92.672584,116 116,92.672581 116,63.999999 C 116,35.327415 92.672584,12 63.999998,12 C 35.327414,12 12,35.327415 12,63.999999 z " />
    <polygon
       transform="matrix(0,-0.8333333,1,0,6,107)"
       style="fill:url(#radialGradient3253);fill-opacity:1"
       id="polygon53"
       points="42,26 90,58 42,90 42,26 " />
    <path
       style="fill:url(#radialGradient2197);fill-opacity:1"
       d="M 40,88 L 40.38871,80 L 87.95798,80.005265 L 88,87.94911 L 40,88 z "
       id="path2195" />
    <path
       style="opacity:0.5;fill:url(#linearGradient3242)"
       id="path60"
       d="M 63.999998,63.999999 C 81.788999,63.999999 97.967006,58.87 110.05199,50.491 C 104.19999,30.582 85.775999,16 63.999998,16 C 42.222999,16 23.798999,30.582999 17.949,50.491 C 30.032,58.87 46.209999,63.999999 63.999998,63.999999 z " />
  </g>
</svg>
